<mxfile host="Electron" agent="Mozilla/5.0 (Windows NT 10.0; Win64; x64) AppleWebKit/537.36 (KHTML, like Gecko) draw.io/24.7.17 Chrome/128.0.6613.36 Electron/32.0.1 Safari/537.36" version="24.7.17">
  <diagram name="Page-1" id="GIbYt4iRPDIrbcCFuZsG">
    <mxGraphModel dx="2607" dy="1520" grid="1" gridSize="10" guides="1" tooltips="1" connect="1" arrows="1" fold="1" page="1" pageScale="1" pageWidth="850" pageHeight="1100" math="0" shadow="0">
      <root>
        <mxCell id="0" />
        <mxCell id="1" parent="0" />
        <mxCell id="RPQSEmVuHAmQXyqX8lbO-1" value="&lt;span style=&quot;font-size: 20px;&quot;&gt;Người chơi&lt;/span&gt;" style="swimlane;whiteSpace=wrap;html=1;startSize=30;" parent="1" vertex="1">
          <mxGeometry x="3" y="108" width="270" height="1047" as="geometry" />
        </mxCell>
        <mxCell id="RPQSEmVuHAmQXyqX8lbO-2" value="" style="ellipse;html=1;shape=startState;fillColor=#000000;strokeColor=#000000;" parent="RPQSEmVuHAmQXyqX8lbO-1" vertex="1">
          <mxGeometry x="120" y="40" width="30" height="30" as="geometry" />
        </mxCell>
        <mxCell id="RPQSEmVuHAmQXyqX8lbO-3" value="" style="edgeStyle=orthogonalEdgeStyle;html=1;verticalAlign=bottom;endArrow=open;endSize=8;strokeColor=#000000;rounded=0;" parent="RPQSEmVuHAmQXyqX8lbO-1" source="RPQSEmVuHAmQXyqX8lbO-2" edge="1">
          <mxGeometry relative="1" as="geometry">
            <mxPoint x="135" y="130" as="targetPoint" />
          </mxGeometry>
        </mxCell>
        <mxCell id="RPQSEmVuHAmQXyqX8lbO-4" value="&lt;font style=&quot;font-size: 16px;&quot;&gt;Người chơi nhấn nút tấn công (chuột trái)&lt;/font&gt;" style="rounded=1;whiteSpace=wrap;html=1;arcSize=40;fontColor=#000000;fillColor=#FFFFFF;strokeColor=#000000;" parent="RPQSEmVuHAmQXyqX8lbO-1" vertex="1">
          <mxGeometry x="30" y="130" width="200" height="70" as="geometry" />
        </mxCell>
        <mxCell id="RPQSEmVuHAmQXyqX8lbO-6" value="&lt;span style=&quot;font-size: 20px;&quot;&gt;Hệ thống&lt;/span&gt;" style="swimlane;whiteSpace=wrap;html=1;startSize=30;" parent="1" vertex="1">
          <mxGeometry x="273" y="108" width="577" height="1047" as="geometry" />
        </mxCell>
        <mxCell id="RPQSEmVuHAmQXyqX8lbO-9" style="edgeStyle=orthogonalEdgeStyle;rounded=0;orthogonalLoop=1;jettySize=auto;html=1;exitX=0.5;exitY=1;exitDx=0;exitDy=0;" parent="RPQSEmVuHAmQXyqX8lbO-6" edge="1">
          <mxGeometry relative="1" as="geometry">
            <mxPoint x="468" y="455" as="sourcePoint" />
            <mxPoint x="468" y="455" as="targetPoint" />
          </mxGeometry>
        </mxCell>
        <mxCell id="RPQSEmVuHAmQXyqX8lbO-10" value="" style="ellipse;html=1;shape=endState;fillColor=#000000;strokeColor=#000000;" parent="RPQSEmVuHAmQXyqX8lbO-6" vertex="1">
          <mxGeometry x="332" y="852" width="30" height="30" as="geometry" />
        </mxCell>
        <mxCell id="RPQSEmVuHAmQXyqX8lbO-26" value="&lt;font style=&quot;font-size: 16px;&quot;&gt;Kích hoạt hoạt ảnh tấn công&lt;/font&gt;" style="rounded=1;whiteSpace=wrap;html=1;arcSize=40;fontColor=#000000;fillColor=#FFFFFF;strokeColor=#000000;" parent="RPQSEmVuHAmQXyqX8lbO-6" vertex="1">
          <mxGeometry x="87" y="122" width="240" height="72" as="geometry" />
        </mxCell>
        <mxCell id="RPQSEmVuHAmQXyqX8lbO-27" value="" style="edgeStyle=orthogonalEdgeStyle;html=1;verticalAlign=bottom;endArrow=open;endSize=8;strokeColor=#000000;rounded=0;entryX=0.5;entryY=0;entryDx=0;entryDy=0;" parent="RPQSEmVuHAmQXyqX8lbO-6" source="RPQSEmVuHAmQXyqX8lbO-26" edge="1" target="wFC0mfGfnhntcbIPpWc1-2">
          <mxGeometry relative="1" as="geometry">
            <mxPoint x="272" y="252" as="targetPoint" />
            <mxPoint x="207.0029585798817" y="172" as="sourcePoint" />
          </mxGeometry>
        </mxCell>
        <mxCell id="wFC0mfGfnhntcbIPpWc1-2" value="&lt;font style=&quot;font-size: 15px;&quot;&gt;Nhân vật bị gián đoạn (stun hoặc khống chế)&lt;/font&gt;" style="rhombus;whiteSpace=wrap;html=1;fontColor=#000000;fillColor=#FFFFFF;strokeColor=#000000;align=center;" vertex="1" parent="RPQSEmVuHAmQXyqX8lbO-6">
          <mxGeometry x="97" y="272" width="220" height="110" as="geometry" />
        </mxCell>
        <mxCell id="wFC0mfGfnhntcbIPpWc1-3" value="&lt;font style=&quot;font-size: 15px;&quot;&gt;Không&lt;/font&gt;" style="edgeStyle=orthogonalEdgeStyle;html=1;align=left;verticalAlign=bottom;endArrow=open;endSize=8;strokeColor=#000000;rounded=0;" edge="1" source="wFC0mfGfnhntcbIPpWc1-2" parent="RPQSEmVuHAmQXyqX8lbO-6">
          <mxGeometry x="-0.5189" relative="1" as="geometry">
            <mxPoint x="417" y="327" as="targetPoint" />
            <mxPoint as="offset" />
          </mxGeometry>
        </mxCell>
        <mxCell id="wFC0mfGfnhntcbIPpWc1-4" value="&lt;font style=&quot;font-size: 15px;&quot;&gt;Có&lt;/font&gt;" style="edgeStyle=orthogonalEdgeStyle;html=1;align=left;verticalAlign=top;endArrow=open;endSize=8;strokeColor=#000000;rounded=0;" edge="1" source="wFC0mfGfnhntcbIPpWc1-2" parent="RPQSEmVuHAmQXyqX8lbO-6">
          <mxGeometry x="-0.4667" relative="1" as="geometry">
            <mxPoint x="207" y="442" as="targetPoint" />
            <mxPoint as="offset" />
          </mxGeometry>
        </mxCell>
        <mxCell id="wFC0mfGfnhntcbIPpWc1-5" value="&lt;span style=&quot;font-size: 16px;&quot;&gt;Áp dụng sát thương lên mục tiêu&lt;/span&gt;" style="rounded=1;whiteSpace=wrap;html=1;arcSize=40;fontColor=#000000;fillColor=#FFFFFF;strokeColor=#000000;" vertex="1" parent="RPQSEmVuHAmQXyqX8lbO-6">
          <mxGeometry x="27" y="632" width="183" height="52" as="geometry" />
        </mxCell>
        <mxCell id="wFC0mfGfnhntcbIPpWc1-6" value="" style="edgeStyle=orthogonalEdgeStyle;html=1;verticalAlign=bottom;endArrow=open;endSize=8;strokeColor=#000000;rounded=0;" edge="1" source="wFC0mfGfnhntcbIPpWc1-5" parent="RPQSEmVuHAmQXyqX8lbO-6" target="wFC0mfGfnhntcbIPpWc1-10">
          <mxGeometry relative="1" as="geometry">
            <mxPoint x="207" y="752" as="targetPoint" />
            <Array as="points">
              <mxPoint x="119" y="722" />
            </Array>
          </mxGeometry>
        </mxCell>
        <mxCell id="wFC0mfGfnhntcbIPpWc1-7" value="&lt;font style=&quot;font-size: 16px;&quot;&gt;Kiểm tra mục tiêu trong&lt;/font&gt;&lt;div style=&quot;font-size: 16px;&quot;&gt;&lt;font style=&quot;font-size: 16px;&quot;&gt;&lt;span style=&quot;background-color: initial;&quot;&gt;&amp;nbsp;phạm&amp;nbsp;&lt;/span&gt;&lt;span style=&quot;background-color: initial;&quot;&gt;vi tấn công&lt;/span&gt;&lt;/font&gt;&lt;/div&gt;" style="rhombus;whiteSpace=wrap;html=1;fontColor=#000000;fillColor=#FFFFFF;strokeColor=#000000;" vertex="1" parent="RPQSEmVuHAmQXyqX8lbO-6">
          <mxGeometry x="107" y="442" width="200" height="90" as="geometry" />
        </mxCell>
        <mxCell id="wFC0mfGfnhntcbIPpWc1-8" value="&lt;font style=&quot;font-size: 15px;&quot;&gt;Không&lt;/font&gt;" style="edgeStyle=orthogonalEdgeStyle;html=1;align=left;verticalAlign=bottom;endArrow=open;endSize=8;strokeColor=#000000;rounded=0;" edge="1" source="wFC0mfGfnhntcbIPpWc1-7" parent="RPQSEmVuHAmQXyqX8lbO-6">
          <mxGeometry x="0.3187" relative="1" as="geometry">
            <mxPoint x="347" y="692" as="targetPoint" />
            <mxPoint as="offset" />
          </mxGeometry>
        </mxCell>
        <mxCell id="wFC0mfGfnhntcbIPpWc1-9" value="&lt;font style=&quot;font-size: 15px;&quot;&gt;Có&lt;/font&gt;" style="edgeStyle=orthogonalEdgeStyle;html=1;align=left;verticalAlign=top;endArrow=open;endSize=8;strokeColor=#000000;rounded=0;" edge="1" source="wFC0mfGfnhntcbIPpWc1-7" parent="RPQSEmVuHAmQXyqX8lbO-6" target="wFC0mfGfnhntcbIPpWc1-5">
          <mxGeometry x="0.1671" y="-30" relative="1" as="geometry">
            <mxPoint x="207" y="622" as="targetPoint" />
            <mxPoint as="offset" />
          </mxGeometry>
        </mxCell>
        <mxCell id="wFC0mfGfnhntcbIPpWc1-10" value="&lt;font style=&quot;font-size: 16px;&quot;&gt;Kết thúc hoạt ảnh tấn công&lt;/font&gt;" style="rounded=1;whiteSpace=wrap;html=1;arcSize=40;fontColor=#000000;fillColor=#FFFFFF;strokeColor=#000000;" vertex="1" parent="RPQSEmVuHAmQXyqX8lbO-6">
          <mxGeometry x="257" y="692" width="180" height="52" as="geometry" />
        </mxCell>
        <mxCell id="wFC0mfGfnhntcbIPpWc1-11" value="" style="edgeStyle=orthogonalEdgeStyle;html=1;verticalAlign=bottom;endArrow=open;endSize=8;strokeColor=#000000;rounded=0;" edge="1" source="wFC0mfGfnhntcbIPpWc1-10" parent="RPQSEmVuHAmQXyqX8lbO-6">
          <mxGeometry relative="1" as="geometry">
            <mxPoint x="347" y="852" as="targetPoint" />
          </mxGeometry>
        </mxCell>
        <mxCell id="wFC0mfGfnhntcbIPpWc1-12" value="&lt;font style=&quot;font-size: 16px;&quot;&gt;Không thể tấn công&lt;/font&gt;" style="rounded=1;whiteSpace=wrap;html=1;arcSize=40;fontColor=#000000;fillColor=#FFFFFF;strokeColor=#000000;" vertex="1" parent="RPQSEmVuHAmQXyqX8lbO-6">
          <mxGeometry x="417" y="290" width="153" height="57" as="geometry" />
        </mxCell>
        <mxCell id="wFC0mfGfnhntcbIPpWc1-13" value="" style="edgeStyle=orthogonalEdgeStyle;html=1;verticalAlign=bottom;endArrow=open;endSize=8;strokeColor=#000000;rounded=0;entryX=1;entryY=0.5;entryDx=0;entryDy=0;" edge="1" source="wFC0mfGfnhntcbIPpWc1-12" parent="RPQSEmVuHAmQXyqX8lbO-6" target="RPQSEmVuHAmQXyqX8lbO-10">
          <mxGeometry relative="1" as="geometry">
            <mxPoint x="494" y="922" as="targetPoint" />
            <Array as="points">
              <mxPoint x="497" y="867" />
            </Array>
          </mxGeometry>
        </mxCell>
        <mxCell id="RPQSEmVuHAmQXyqX8lbO-5" value="" style="edgeStyle=orthogonalEdgeStyle;html=1;verticalAlign=bottom;endArrow=open;endSize=8;strokeColor=#000000;rounded=0;entryX=0.002;entryY=0.597;entryDx=0;entryDy=0;entryPerimeter=0;" parent="1" source="RPQSEmVuHAmQXyqX8lbO-4" target="RPQSEmVuHAmQXyqX8lbO-26" edge="1">
          <mxGeometry relative="1" as="geometry">
            <mxPoint x="353" y="273" as="targetPoint" />
          </mxGeometry>
        </mxCell>
      </root>
    </mxGraphModel>
  </diagram>
</mxfile>
